<svg width="17" height="17" viewBox="0 0 17 17" fill="none" xmlns="http://www.w3.org/2000/svg">
<rect x="0.241406" y="0.327832" width="15.9" height="15.9" rx="0.95" fill="#F7F7F7" stroke="black" stroke-width="0.1"/>
<path d="M7.37283 2C5.79558 2 4.28292 2.62656 3.16763 3.74185C2.05234 4.85714 1.42578 6.36979 1.42578 7.94705C1.42578 9.5243 2.05234 11.037 3.16763 12.1522C4.28292 13.2675 5.79557 13.8941 7.37283 13.8941L7.37283 7.94705L7.37283 2Z" fill="black"/>
<path d="M7.86914 2.99121H13.8162C14.5005 2.99121 15.0552 3.54592 15.0552 4.23018V4.23018C15.0552 4.91444 14.5005 5.46915 13.8162 5.46915H7.86914V2.99121Z" fill="black"/>
<path d="M7.86914 10.1772H13.8162C14.5005 10.1772 15.0552 10.7319 15.0552 11.4162V11.4162C15.0552 12.1004 14.5005 12.6551 13.8162 12.6551H7.86914V10.1772Z" fill="black"/>
<path d="M7.86914 6.95587H12.2055C12.6845 6.95587 13.0728 7.34417 13.0728 7.82315V7.82315C13.0728 8.30213 12.6845 8.69043 12.2055 8.69043H7.86914V6.95587Z" fill="black"/>
</svg>
