<svg width="512" height="512" viewBox="0 0 512 512" fill="none" xmlns="http://www.w3.org/2000/svg">
<rect x="0.0363636" y="0.0363636" width="511.927" height="511.927" rx="31.9636" fill="#D9D9D7" stroke="#A9A9A9" stroke-width="0.0727273"/>
<path d="M231 84C185.383 84 141.634 102.121 109.378 134.378C77.1214 166.634 59 210.383 59 256C59 301.617 77.1214 345.366 109.378 377.622C141.634 409.879 185.383 428 231 428L231 256L231 84Z" fill="#383838"/>
<path d="M245.32 112.668H417.32C437.111 112.668 453.154 128.711 453.154 148.501V148.501C453.154 168.292 437.11 184.335 417.32 184.335H245.32V112.668Z" fill="#383838"/>
<path d="M245.32 320.502H417.32C437.111 320.502 453.154 336.545 453.154 356.335V356.335C453.154 376.125 437.11 392.168 417.32 392.168H245.32V320.502Z" fill="#383838"/>
<path d="M245.32 227.336H370.737C384.59 227.336 395.82 238.566 395.82 252.419V252.419C395.82 266.273 384.59 277.503 370.737 277.503H245.32V227.336Z" fill="#383838"/>
</svg>
