<svg xmlns="http://www.w3.org/2000/svg" viewBox="0 0 110.57 122.39" xmlns:v="https://vecta.io/nano"><defs><linearGradient id="A" x1="91.62" y1="70.29" x2="-3.8" y2="15.02" gradientUnits="userSpaceOnUse"><stop offset="0" stop-color="#1166e3"/><stop offset=".09" stop-color="#166ee1"/><stop offset=".23" stop-color="#2385dc"/><stop offset=".41" stop-color="#37a9d3"/><stop offset=".55" stop-color="#4acacc"/></linearGradient></defs><path d="M8.16 114.62H.82a.82.82 0 0 1-.82-.82.81.81 0 0 1 .82-.8h7.34a.82.82 0 0 1 .82.81.82.82 0 0 1-.82.81zm101.59 0h-7.35a.82.82 0 0 1-.81-.82.81.81 0 0 1 .81-.81h7.35a.82.82 0 0 1 .82.81.82.82 0 0 1-.82.82z" fill="#4acacc"/><path d="M25 111.74a.37.37 0 0 1-.15.3.5.5 0 0 1-.34.12.53.53 0 0 1-.24-.06.47.47 0 0 1-.19-.18L23 110.34a1 1 0 0 0-.33-.36.9.9 0 0 0-.46-.1h-.77v1.76a.5.5 0 0 1-.14.37.53.53 0 0 1-.72 0 .5.5 0 0 1-.14-.37V107a.45.45 0 0 1 .13-.35.47.47 0 0 1 .36-.13h2a2.17 2.17 0 0 1 1.44.42 1.54 1.54 0 0 1 .49 1.22 1.48 1.48 0 0 1-.37 1 1.66 1.66 0 0 1-1 .53 1.16 1.16 0 0 1 .4.2 1.9 1.9 0 0 1 .34.39l.71 1.1a.43.43 0 0 1 .06.36zm-1.38-2.86a.78.78 0 0 0 .27-.66.77.77 0 0 0-.27-.66 1.37 1.37 0 0 0-.84-.21h-1.35v1.75h1.32a1.3 1.3 0 0 0 .84-.22zm3.2 3.12a.47.47 0 0 1-.13-.36V107a.45.45 0 0 1 .13-.35.47.47 0 0 1 .36-.13H30a.58.58 0 0 1 .35.1.38.38 0 0 1 .13.29.39.39 0 0 1-.13.31.52.52 0 0 1-.35.1h-2.32v1.53h2.18a.52.52 0 0 1 .35.1.35.35 0 0 1 .13.3.34.34 0 0 1-.13.29.52.52 0 0 1-.35.1h-2.18v1.62H30a.52.52 0 0 1 .35.11.38.38 0 0 1 .13.3.36.36 0 0 1-.13.29.52.52 0 0 1-.35.1h-2.82a.51.51 0 0 1-.36-.06zm9.74-5.49a.58.58 0 0 1 .35.13.37.37 0 0 1 .16.31.53.53 0 0 1 0 .2l-2.18 4.69a.52.52 0 0 1-.21.23.68.68 0 0 1-.31.08.72.72 0 0 1-.32-.08.58.58 0 0 1-.21-.23l-2.17-4.69a.54.54 0 0 1-.05-.19.4.4 0 0 1 .16-.32.62.62 0 0 1 .37-.13.55.55 0 0 1 .25.07.48.48 0 0 1 .17.2l1.81 4 1.81-4a.42.42 0 0 1 .37-.27zm2.08 5.49a.47.47 0 0 1-.13-.36V107a.45.45 0 0 1 .48-.48h2.84a.64.64 0 0 1 .36.1.37.37 0 0 1 .12.29.39.39 0 0 1-.12.31.57.57 0 0 1-.36.1H39.5v1.53h2.18a.54.54 0 0 1 .35.1.38.38 0 0 1 .12.3.36.36 0 0 1-.12.29.54.54 0 0 1-.35.1H39.5v1.62h2.33a.57.57 0 0 1 .36.11.38.38 0 0 1 .12.3.36.36 0 0 1-.12.29.57.57 0 0 1-.36.1H39a.48.48 0 0 1-.36-.06zm9.83-5.34a.48.48 0 0 1 .13.36v4.62a.51.51 0 0 1-.13.37.48.48 0 0 1-.35.14.44.44 0 0 1-.38-.18l-2.87-3.73v3.4a.55.55 0 0 1-.13.37.45.45 0 0 1-.35.14.44.44 0 0 1-.34-.14.55.55 0 0 1-.13-.37V107a.49.49 0 0 1 .14-.36.47.47 0 0 1 .35-.14.45.45 0 0 1 .38.18l2.86 3.72V107a.48.48 0 0 1 .13-.36.46.46 0 0 1 .34-.14.45.45 0 0 1 .35.16zm2.67 4.92a2.33 2.33 0 0 1-.59-1.72V107a.49.49 0 0 1 .14-.36.46.46 0 0 1 .36-.14.49.49 0 0 1 .36.14.48.48 0 0 1 .13.36v2.9a1.52 1.52 0 0 0 .34 1.08 1.31 1.31 0 0 0 1 .36 1.27 1.27 0 0 0 1-.36 1.54 1.54 0 0 0 .34-1.08V107a.49.49 0 0 1 .14-.36.46.46 0 0 1 .36-.14.49.49 0 0 1 .36.14.48.48 0 0 1 .13.36v2.84a2.44 2.44 0 0 1-4 1.72zm6.12.42a.51.51 0 0 1-.13-.36V107a.45.45 0 0 1 .49-.48h2.84a.58.58 0 0 1 .35.1.35.35 0 0 1 .13.29.36.36 0 0 1-.13.31.52.52 0 0 1-.35.1h-2.34v1.53h2.18a.52.52 0 0 1 .35.1.35.35 0 0 1 .13.3.34.34 0 0 1-.13.29.52.52 0 0 1-.35.1h-2.18v1.62h2.34a.52.52 0 0 1 .35.11.35.35 0 0 1 .13.3.34.34 0 0 1-.13.29.52.52 0 0 1-.35.1h-2.84a.52.52 0 0 1-.36-.06zm9.28-.17a2.26 2.26 0 0 1-.92-1 3.62 3.62 0 0 1 0-3 2.29 2.29 0 0 1 .92-1 2.77 2.77 0 0 1 1.4-.35 3.14 3.14 0 0 1 1 .15 2.67 2.67 0 0 1 .81.45.5.5 0 0 1 .14.16.67.67 0 0 1 0 .22.43.43 0 0 1-.1.29.29.29 0 0 1-.22.11.54.54 0 0 1-.33-.11 2.51 2.51 0 0 0-.63-.35 2.11 2.11 0 0 0-.64-.09 1.51 1.51 0 0 0-1.24.51 2.31 2.31 0 0 0-.42 1.5 2.34 2.34 0 0 0 .42 1.51 1.51 1.51 0 0 0 1.24.51 2.06 2.06 0 0 0 .62-.1 3 3 0 0 0 .65-.35l.16-.08a.47.47 0 0 1 .17 0 .28.28 0 0 1 .22.12.41.41 0 0 1 .1.29.65.65 0 0 1 0 .21.44.44 0 0 1-.14.17 2.65 2.65 0 0 1-.81.44 3.14 3.14 0 0 1-1 .16 2.77 2.77 0 0 1-1.4-.37zm8.74-5.31a.45.45 0 0 1 .46.47.44.44 0 0 1-.12.29l-1.78 2.18v2.18a.52.52 0 0 1-.5.51.48.48 0 0 1-.52-.51v-2.18L71 107.28a.44.44 0 0 1-.12-.29.45.45 0 0 1 .14-.33.47.47 0 0 1 .33-.14.42.42 0 0 1 .33.17l1.62 2 1.6-2a.44.44 0 0 1 .38-.17zm2.63 5.31a2.34 2.34 0 0 1-.93-1 3.72 3.72 0 0 1 0-3 2.38 2.38 0 0 1 .93-1 2.77 2.77 0 0 1 1.4-.35 3.14 3.14 0 0 1 1 .15 2.67 2.67 0 0 1 .81.45.41.41 0 0 1 .18.38.43.43 0 0 1-.1.29.3.3 0 0 1-.23.11.54.54 0 0 1-.32-.11 2.51 2.51 0 0 0-.63-.35 2.15 2.15 0 0 0-.64-.09 1.51 1.51 0 0 0-1.24.51 2.31 2.31 0 0 0-.42 1.5 2.34 2.34 0 0 0 .42 1.51 1.51 1.51 0 0 0 1.24.51 2.06 2.06 0 0 0 .62-.1 3.26 3.26 0 0 0 .65-.35l.16-.08a.45.45 0 0 1 .16 0 .28.28 0 0 1 .23.12.41.41 0 0 1 .1.29.65.65 0 0 1 0 .21.55.55 0 0 1-.14.17 2.65 2.65 0 0 1-.81.44 3.14 3.14 0 0 1-1 .16 2.77 2.77 0 0 1-1.44-.37zm5.17.17a.46.46 0 0 1-.13-.35V107a.48.48 0 0 1 .5-.5.52.52 0 0 1 .38.14.49.49 0 0 1 .17.36v4.25h2.2q.48 0 .48.42c0 .28-.16.41-.48.41h-2.77a.48.48 0 0 1-.35-.08zm5.15 0a.47.47 0 0 1-.13-.36V107a.45.45 0 0 1 .13-.35.48.48 0 0 1 .36-.13h2.84a.58.58 0 0 1 .35.1.38.38 0 0 1 .13.29.39.39 0 0 1-.13.31.52.52 0 0 1-.35.1h-2.34v1.53h2.18a.52.52 0 0 1 .35.1.35.35 0 0 1 .13.3.34.34 0 0 1-.13.29.52.52 0 0 1-.35.1h-2.18v1.62h2.34a.52.52 0 0 1 .35.11.38.38 0 0 1 .13.3.36.36 0 0 1-.13.29.52.52 0 0 1-.35.1h-2.84a.52.52 0 0 1-.36-.06zm-62.52 4.87a.5.5 0 0 1 .14.37v4.65a.46.46 0 0 1-.13.35.45.45 0 0 1-.33.12.44.44 0 0 1-.32-.12.5.5 0 0 1-.12-.35v-3.24l-1.33 2.53a1 1 0 0 1-.21.26.45.45 0 0 1-.26.08.47.47 0 0 1-.26-.08.71.71 0 0 1-.2-.26l-1.35-2.49v3.2a.47.47 0 0 1-.12.34.41.41 0 0 1-.32.13.45.45 0 0 1-.33-.12.49.49 0 0 1-.11-.35v-4.65a.53.53 0 0 1 .12-.37.48.48 0 0 1 .35-.14.53.53 0 0 1 .48.34l1.75 3.33 1.74-3.33a.52.52 0 0 1 .46-.34.45.45 0 0 1 .35.14zm8.14 5.04a.41.41 0 0 1-.14.31.53.53 0 0 1-.34.13.48.48 0 0 1-.23-.07.42.42 0 0 1-.18-.21l-.47-1h-2.77l-.47 1a.41.41 0 0 1-.17.21.48.48 0 0 1-.24.07.53.53 0 0 1-.33-.13.39.39 0 0 1-.15-.31.51.51 0 0 1 0-.2l2.17-4.66a.47.47 0 0 1 .22-.24.58.58 0 0 1 .62 0 .47.47 0 0 1 .22.24l2.17 4.66a.39.39 0 0 1 .09.2zm-3.78-1.68h2.08l-1-2.33zm10.82-3.36a.49.49 0 0 1 .13.37v4.61a.51.51 0 0 1-.13.37.48.48 0 0 1-.35.14.44.44 0 0 1-.38-.18l-2.87-3.73v3.4a.51.51 0 0 1-.13.37.44.44 0 0 1-.34.14.45.45 0 0 1-.35-.14.55.55 0 0 1-.13-.37v-4.61a.5.5 0 0 1 .14-.37.47.47 0 0 1 .35-.14.45.45 0 0 1 .38.18l2.86 3.72v-3.39a.49.49 0 0 1 .13-.37.46.46 0 0 1 .34-.14.45.45 0 0 1 .35.14zm8.11 5.04a.39.39 0 0 1-.15.31.51.51 0 0 1-.33.13.51.51 0 0 1-.24-.07.41.41 0 0 1-.17-.21l-.47-1h-2.75l-.47 1a.41.41 0 0 1-.17.21.55.55 0 0 1-.25.07.53.53 0 0 1-.33-.13.39.39 0 0 1-.15-.31.53.53 0 0 1 0-.2l2.17-4.66a.47.47 0 0 1 .22-.24.56.56 0 0 1 .31-.09.59.59 0 0 1 .31.09.45.45 0 0 1 .21.24l2.26 4.66a.53.53 0 0 1 0 .2zm-3.78-1.68h2.07l-1-2.33zm10.63-.8a.37.37 0 0 1 .11.27v1.69a1.07 1.07 0 0 1-.09.52.73.73 0 0 1-.39.24 4.15 4.15 0 0 1-.73.17 5.65 5.65 0 0 1-.8.07 3.18 3.18 0 0 1-1.49-.34 2.27 2.27 0 0 1-1-1 3.32 3.32 0 0 1-.33-1.53 3.23 3.23 0 0 1 .37-1.52 2.33 2.33 0 0 1 1-1 3 3 0 0 1 1.44-.34 2.72 2.72 0 0 1 1.82.6.7.7 0 0 1 .14.17.46.46 0 0 1 0 .21.48.48 0 0 1-.09.29.28.28 0 0 1-.23.11.41.41 0 0 1-.16 0l-.16-.09a2.62 2.62 0 0 0-.65-.35 2.33 2.33 0 0 0-.68-.09 1.63 1.63 0 0 0-1.29.5 2.27 2.27 0 0 0-.44 1.51q0 2 1.8 2a4 4 0 0 0 1.07-.15V120h-.89a.45.45 0 0 1-.3-.09.33.33 0 0 1-.1-.27.36.36 0 0 1 .1-.27.45.45 0 0 1 .3-.09h1.39a.36.36 0 0 1 .28.15zm3.15 2.76a.45.45 0 0 1-.13-.35v-4.59a.45.45 0 0 1 .13-.35.48.48 0 0 1 .36-.13h2.84a.58.58 0 0 1 .35.1.38.38 0 0 1 .13.29.39.39 0 0 1-.13.31.52.52 0 0 1-.35.1h-2.38v1.53H62a.52.52 0 0 1 .35.1.35.35 0 0 1 .13.3.34.34 0 0 1-.13.29.52.52 0 0 1-.35.1h-2.18v1.62h2.34a.52.52 0 0 1 .35.11.38.38 0 0 1 .13.3.36.36 0 0 1-.13.29.52.52 0 0 1-.35.1h-2.84a.52.52 0 0 1-.32-.12zm11.47-5.32a.49.49 0 0 1 .13.37v4.65a.46.46 0 0 1-.13.35.45.45 0 0 1-.33.12.44.44 0 0 1-.32-.12.5.5 0 0 1-.12-.35v-3.24l-1.33 2.53a.82.82 0 0 1-.21.26.45.45 0 0 1-.26.08.47.47 0 0 1-.26-.08.71.71 0 0 1-.2-.26l-1.34-2.49v3.2a.48.48 0 0 1-.13.34.41.41 0 0 1-.32.13.45.45 0 0 1-.33-.12.54.54 0 0 1-.11-.35v-4.65a.49.49 0 0 1 .13-.37.45.45 0 0 1 .35-.14.55.55 0 0 1 .48.34l1.74 3.33 1.74-3.33a.52.52 0 0 1 .46-.34.49.49 0 0 1 .36.14zm3.19 5.32a.48.48 0 0 1-.13-.35v-4.59a.45.45 0 0 1 .49-.48h2.84a.58.58 0 0 1 .35.1.35.35 0 0 1 .13.29.36.36 0 0 1-.13.31.52.52 0 0 1-.35.1h-2.34v1.53h2.18a.52.52 0 0 1 .35.1.35.35 0 0 1 .13.3.34.34 0 0 1-.13.29.52.52 0 0 1-.35.1h-2.18v1.62h2.34a.52.52 0 0 1 .35.11.35.35 0 0 1 .13.3.34.34 0 0 1-.13.29.52.52 0 0 1-.35.1H74a.52.52 0 0 1-.34-.12zm10.78-5.32a.49.49 0 0 1 .13.37v4.61a.51.51 0 0 1-.13.37.48.48 0 0 1-.35.14.44.44 0 0 1-.38-.18l-2.87-3.73v3.4a.55.55 0 0 1-.13.37.45.45 0 0 1-.35.14.44.44 0 0 1-.34-.14.51.51 0 0 1-.13-.37v-4.61a.5.5 0 0 1 .14-.37.47.47 0 0 1 .35-.14.45.45 0 0 1 .38.18l2.86 3.72v-3.39a.49.49 0 0 1 .13-.37.46.46 0 0 1 .34-.14.47.47 0 0 1 .35.14zm4.5 5.35a.51.51 0 0 1-.14-.37v-4.25h-1.43c-.31 0-.47-.13-.47-.41s.16-.42.47-.42h3.88c.31 0 .47.14.47.42s-.16.41-.47.41h-1.43v4.25a.51.51 0 0 1-.51.5.49.49 0 0 1-.37-.13z" fill="#c7f7ff"/><path d="M18.65 96.26a.82.82 0 0 1-.32.65 1.06 1.06 0 0 1-.7.27.9.9 0 0 1-.5-.16.93.93 0 0 1-.36-.44l-1.35-3.06H8l-1.4 3.06a1 1 0 0 1-.88.6 1.08 1.08 0 0 1-.72-.27.8.8 0 0 1-.32-.65 1.05 1.05 0 0 1 .1-.41l5.76-12.6a1 1 0 0 1 .46-.51 1.32 1.32 0 0 1 .66-.19 1.36 1.36 0 0 1 .67.19 1.09 1.09 0 0 1 .46.51l5.75 12.6a1.09 1.09 0 0 1 .11.41zM8.7 91.85h6l-3-6.76zm14.74 5.03a1 1 0 0 1-.3-.77V84.43h-4.08q-1 0-1-.87a.84.84 0 0 1 .26-.66 1.06 1.06 0 0 1 .73-.22h10.3a1.05 1.05 0 0 1 .72.22.84.84 0 0 1 .26.66c0 .58-.33.87-1 .87h-4.07v11.68a1.06 1.06 0 0 1-.28.77 1 1 0 0 1-.78.3 1 1 0 0 1-.76-.3zm9.56-.07a1 1 0 0 1-.27-.72V83.64a1.06 1.06 0 0 1 .28-.77 1 1 0 0 1 .76-.3 1 1 0 0 1 1.06 1.07v11.68H41a1.05 1.05 0 0 1 .72.22 1 1 0 0 1 0 1.31 1.05 1.05 0 0 1-.72.22h-7.3a1 1 0 0 1-.7-.26zm24-.55a.82.82 0 0 1-.32.65 1 1 0 0 1-.7.27.9.9 0 0 1-.5-.16.93.93 0 0 1-.36-.44l-1.35-3.06h-7.43L45 96.58a.89.89 0 0 1-.37.44 1 1 0 0 1-.51.16 1.08 1.08 0 0 1-.72-.27.82.82 0 0 1-.32-.65 1.05 1.05 0 0 1 .1-.41l5.76-12.6a1.09 1.09 0 0 1 .46-.51 1.26 1.26 0 0 1 1.33 0 1.09 1.09 0 0 1 .46.51l5.76 12.6a1.05 1.05 0 0 1 .05.41zm-9.95-4.41h6l-3-6.76zm24.34-8.98a1.1 1.1 0 0 1 .27.77v12.47a1.06 1.06 0 0 1-.28.77 1 1 0 0 1-.74.3 1 1 0 0 1-.82-.41l-8-10.56v9.9a1.06 1.06 0 0 1-.28.77.92.92 0 0 1-.72.3 1 1 0 0 1-.72-.29 1.13 1.13 0 0 1-.26-.78V83.64a1.06 1.06 0 0 1 .28-.77 1 1 0 0 1 .74-.3 1 1 0 0 1 .82.41l8 10.58v-9.92a1.1 1.1 0 0 1 .27-.77.89.89 0 0 1 .71-.3 1 1 0 0 1 .73.3zm7.96 14.01a1 1 0 0 1-.3-.77V84.43H75c-.65 0-1-.29-1-.87a.83.83 0 0 1 .25-.66 1.08 1.08 0 0 1 .73-.22h10.28a1.06 1.06 0 0 1 .73.22.83.83 0 0 1 .25.66c0 .58-.32.87-1 .87h-4.06v11.68a1.06 1.06 0 0 1-.29.77 1.14 1.14 0 0 1-1.54 0zm9.53.01a1.06 1.06 0 0 1-.29-.78V83.64a1.06 1.06 0 0 1 .29-.77 1 1 0 0 1 .75-.3 1 1 0 0 1 1.06 1.07v12.47a1.09 1.09 0 0 1-.27.78 1.07 1.07 0 0 1-.79.29 1 1 0 0 1-.75-.29zm7.58-.08a5.83 5.83 0 0 1-2.23-1.19 1.08 1.08 0 0 1-.23-1.46.61.61 0 0 1 .49-.25 1.41 1.41 0 0 1 .7.26 6.76 6.76 0 0 0 4.14 1.35 4.33 4.33 0 0 0 2.51-.61 2 2 0 0 0 .88-1.76 1.45 1.45 0 0 0-.72-1.35 11.24 11.24 0 0 0-2.67-.8 16.7 16.7 0 0 1-2.82-.84 4.14 4.14 0 0 1-1.72-1.28 3.21 3.21 0 0 1-.62-2 3.69 3.69 0 0 1 .68-2.21 4.56 4.56 0 0 1 1.91-1.52 6.89 6.89 0 0 1 2.8-.54 8.44 8.44 0 0 1 2.67.41 5.69 5.69 0 0 1 2.09 1.21 1.05 1.05 0 0 1 .4.83 1 1 0 0 1-.21.62.64.64 0 0 1-.5.26 1.36 1.36 0 0 1-.67-.26 7.23 7.23 0 0 0-1.77-1 5.39 5.39 0 0 0-2-.32 4.06 4.06 0 0 0-2.45.64 2.09 2.09 0 0 0-.88 1.79 1.65 1.65 0 0 0 .76 1.35 8.31 8.31 0 0 0 2.49.91 20 20 0 0 1 2.91.85 4.41 4.41 0 0 1 1.77 1.2 2.92 2.92 0 0 1 .67 2 3.63 3.63 0 0 1-.69 2.18 4.38 4.38 0 0 1-1.92 1.47 7.39 7.39 0 0 1-2.85.52 10.22 10.22 0 0 1-2.92-.46z" fill="#fff"/><path d="M56.06 66.91c21.07 0 33.78 5.61 38.81 8A.88.88 0 0 0 96 73.66L56.82.47a.87.87 0 0 0-1.54 0l-40.73 74a.88.88 0 0 0 1.15 1.23 93.13 93.13 0 0 1 40.36-8.79z" fill="url(#A)"/></svg>