<svg xmlns="http://www.w3.org/2000/svg" viewBox="0 0 113.83 126" xmlns:v="https://vecta.io/nano"><defs><linearGradient id="A" x1="94.33" y1="72.37" x2="-3.91" y2="15.47" gradientUnits="userSpaceOnUse"><stop offset="0" stop-color="#1166e3"/><stop offset=".09" stop-color="#166ee1"/><stop offset=".23" stop-color="#2385dc"/><stop offset=".41" stop-color="#37a9d3"/><stop offset=".55" stop-color="#4acacc"/></linearGradient></defs><path d="M8.41 118H.84a.84.84 0 0 1 0-1.68h7.57a.84.84 0 0 1 0 1.68zM113 118h-7.56a.84.84 0 0 1 0-1.68H113a.84.84 0 0 1 0 1.68z" fill="#4acacc"/><path d="M25.71 115a.37.37 0 0 1-.15.31.56.56 0 0 1-.36.12.53.53 0 0 1-.24-.06.49.49 0 0 1-.2-.18l-1.08-1.64a1.08 1.08 0 0 0-.34-.36 1 1 0 0 0-.48-.11h-.79v1.82a.52.52 0 0 1-.14.38.46.46 0 0 1-.37.14.5.5 0 0 1-.38-.14.52.52 0 0 1-.14-.38v-4.7a.47.47 0 0 1 .14-.36.48.48 0 0 1 .36-.13h2a2.22 2.22 0 0 1 1.48.43 1.8 1.8 0 0 1 .13 2.34 1.84 1.84 0 0 1-1.07.55.88.88 0 0 1 .41.2 1.76 1.76 0 0 1 .35.4l.74 1.13a.56.56 0 0 1 .13.24zm-1.42-2.94a1 1 0 0 0 0-1.37 1.43 1.43 0 0 0-.87-.21h-1.36v1.8h1.36a1.36 1.36 0 0 0 .87-.18zm3.32 3.23a.49.49 0 0 1-.13-.37v-4.72a.47.47 0 0 1 .13-.36.49.49 0 0 1 .37-.13h2.92a.58.58 0 0 1 .37.1.38.38 0 0 1 .13.3.39.39 0 0 1-.13.31.53.53 0 0 1-.37.11h-2.4v1.57h2.24a.53.53 0 0 1 .36.11.36.36 0 0 1 .13.31.35.35 0 0 1-.13.3.53.53 0 0 1-.36.1H28.5v1.67h2.4a.58.58 0 0 1 .37.11.41.41 0 0 1 .13.31.38.38 0 0 1-.13.3.58.58 0 0 1-.37.1H28a.53.53 0 0 1-.39-.12zm10.03-5.63a.55.55 0 0 1 .36.13.39.39 0 0 1 .16.32.46.46 0 0 1 0 .21l-2.24 4.82a.56.56 0 0 1-.22.24.68.68 0 0 1-.64 0 .56.56 0 0 1-.22-.24l-2.24-4.82a.58.58 0 0 1 0-.2.42.42 0 0 1 .17-.33.58.58 0 0 1 .38-.13.45.45 0 0 1 .25.07.38.38 0 0 1 .18.21l1.87 4.13 1.86-4.13a.43.43 0 0 1 .33-.28zm2.14 5.63a.5.5 0 0 1-.14-.37v-4.72a.47.47 0 0 1 .14-.36.49.49 0 0 1 .37-.13h2.92a.55.55 0 0 1 .36.1.35.35 0 0 1 .13.3.36.36 0 0 1-.13.31.5.5 0 0 1-.36.11h-2.41v1.57h2.25a.57.57 0 0 1 .36.11.36.36 0 0 1 .13.31.35.35 0 0 1-.13.3.57.57 0 0 1-.36.1h-2.25v1.67h2.41a.55.55 0 0 1 .36.11.37.37 0 0 1 .13.31.35.35 0 0 1-.13.3.55.55 0 0 1-.36.1h-2.92a.53.53 0 0 1-.37-.12zm10.12-5.48a.52.52 0 0 1 .14.38v4.75a.56.56 0 0 1-.14.38.49.49 0 0 1-.36.14.46.46 0 0 1-.39-.18l-3-3.85v3.51a.55.55 0 0 1-.13.38.45.45 0 0 1-.35.14.49.49 0 0 1-.36-.14.55.55 0 0 1-.13-.38v-4.75a.52.52 0 0 1 .14-.38.49.49 0 0 1 .36-.14.46.46 0 0 1 .39.18l3 3.83v-3.49a.52.52 0 0 1 .13-.38.48.48 0 0 1 .35-.14.49.49 0 0 1 .35.14zm2.75 5.07a2.4 2.4 0 0 1-.61-1.77v-2.92a.52.52 0 0 1 .14-.38.51.51 0 0 1 .37-.14.54.54 0 0 1 .38.14.52.52 0 0 1 .13.38v3a1.6 1.6 0 0 0 .35 1.12 1.32 1.32 0 0 0 1 .37 1.28 1.28 0 0 0 1-.38 1.54 1.54 0 0 0 .35-1.11v-3a.52.52 0 0 1 .14-.38.51.51 0 0 1 .37-.14.5.5 0 0 1 .37.14.48.48 0 0 1 .14.38v2.92a2.52 2.52 0 0 1-4.16 1.77zm6.35.41a.49.49 0 0 1-.13-.37v-4.72a.47.47 0 0 1 .13-.36.51.51 0 0 1 .37-.13h2.92a.58.58 0 0 1 .37.1.38.38 0 0 1 .13.3.39.39 0 0 1-.13.31.53.53 0 0 1-.37.11h-2.4v1.57h2.24a.58.58 0 0 1 .37.11.39.39 0 0 1 .13.31.38.38 0 0 1-.13.3.58.58 0 0 1-.37.1h-2.29v1.67h2.4a.58.58 0 0 1 .37.11.41.41 0 0 1 .13.31.38.38 0 0 1-.13.3.58.58 0 0 1-.37.1h-2.92a.55.55 0 0 1-.32-.12zm9.5-.16a2.4 2.4 0 0 1-1-1 3.81 3.81 0 0 1 0-3.1 2.4 2.4 0 0 1 1-1 2.86 2.86 0 0 1 1.45-.35 3.22 3.22 0 0 1 1 .15 2.74 2.74 0 0 1 .84.46.44.44 0 0 1 .14.17.58.58 0 0 1-.05.52.31.31 0 0 1-.24.12.62.62 0 0 1-.33-.11 2 2 0 0 0-1.31-.46 1.57 1.57 0 0 0-1.28.52 3 3 0 0 0 0 3.1 1.57 1.57 0 0 0 1.28.53 1.91 1.91 0 0 0 .64-.11 3.35 3.35 0 0 0 .67-.35.6.6 0 0 1 .16-.08.33.33 0 0 1 .17 0 .31.31 0 0 1 .24.12.53.53 0 0 1 .09.3.48.48 0 0 1 0 .22.44.44 0 0 1-.14.17 2.74 2.74 0 0 1-.84.46 3 3 0 0 1-1 .16 2.86 2.86 0 0 1-1.49-.44zm9-5.46a.45.45 0 0 1 .48.48.46.46 0 0 1-.12.3L76 112.7v2.24a.56.56 0 0 1-.14.39.62.62 0 0 1-.76 0 .52.52 0 0 1-.14-.39v-2.24l-1.84-2.25a.46.46 0 0 1-.12-.3.48.48 0 0 1 .14-.34.49.49 0 0 1 .33-.14.42.42 0 0 1 .35.18l1.66 2.05 1.65-2.05a.45.45 0 0 1 .37-.18zm2.71 5.46a2.4 2.4 0 0 1-.95-1 3.81 3.81 0 0 1 0-3.1 2.4 2.4 0 0 1 .95-1 2.79 2.79 0 0 1 1.44-.35 3.33 3.33 0 0 1 1 .15 2.69 2.69 0 0 1 .83.46.47.47 0 0 1 .15.17.67.67 0 0 1 0 .22.44.44 0 0 1-.1.3.28.28 0 0 1-.23.12.68.68 0 0 1-.3-.1 1.95 1.95 0 0 0-1.31-.46 1.55 1.55 0 0 0-1.27.52 3 3 0 0 0 0 3.1 1.55 1.55 0 0 0 1.27.53 2 2 0 0 0 .65-.11 3.3 3.3 0 0 0 .66-.35.65.65 0 0 1 .17-.08.33.33 0 0 1 .17 0 .28.28 0 0 1 .23.12.47.47 0 0 1 .1.3.67.67 0 0 1 0 .22.47.47 0 0 1-.15.17 2.69 2.69 0 0 1-.83.46 3.05 3.05 0 0 1-1 .16 2.8 2.8 0 0 1-1.48-.45zm5.32.16a.48.48 0 0 1-.13-.36v-4.74a.52.52 0 0 1 .14-.38.54.54 0 0 1 .38-.14.52.52 0 0 1 .38.14.49.49 0 0 1 .15.38v4.37h2.27c.32 0 .49.14.49.43s-.17.42-.49.42H85.9a.53.53 0 0 1-.37-.12zm5.31 0a.5.5 0 0 1-.14-.37v-4.72a.47.47 0 0 1 .14-.36.49.49 0 0 1 .37-.13h2.92a.55.55 0 0 1 .36.1.35.35 0 0 1 .13.3.36.36 0 0 1-.13.31.5.5 0 0 1-.36.11h-2.41v1.57H94a.57.57 0 0 1 .36.11.36.36 0 0 1 .13.31.35.35 0 0 1-.13.3.57.57 0 0 1-.36.1h-2.28v1.67h2.41a.55.55 0 0 1 .36.11.37.37 0 0 1 .13.31.35.35 0 0 1-.13.3.55.55 0 0 1-.36.1h-2.92a.53.53 0 0 1-.37-.12zm-64.37 5.03a.5.5 0 0 1 .14.38v4.79a.48.48 0 0 1-.47.49.45.45 0 0 1-.33-.13.52.52 0 0 1-.12-.36v-3.33l-1.38 2.6a.63.63 0 0 1-.21.26.39.39 0 0 1-.26.09.46.46 0 0 1-.27-.08.61.61 0 0 1-.21-.27L22 122.2v3.29a.5.5 0 0 1-.12.35.44.44 0 0 1-.34.14.45.45 0 0 1-.33-.13.52.52 0 0 1-.12-.36v-4.79a.53.53 0 0 1 .13-.38.49.49 0 0 1 .36-.14.56.56 0 0 1 .5.35l1.76 3.47 1.79-3.42a.55.55 0 0 1 .48-.35.49.49 0 0 1 .36.09zm8.38 5.19a.41.41 0 0 1-.15.32.48.48 0 0 1-.34.13.4.4 0 0 1-.24-.07.42.42 0 0 1-.18-.21l-.49-1.09H30.6l-.48 1.09a.54.54 0 0 1-.18.21.45.45 0 0 1-.25.07.48.48 0 0 1-.34-.13.42.42 0 0 1-.16-.32.54.54 0 0 1 0-.21l2.24-4.8a.47.47 0 0 1 .22-.24.61.61 0 0 1 .64 0 .51.51 0 0 1 .22.24l2.24 4.8a.41.41 0 0 1 .1.21zM31 123.78h2.1l-1.1-2.4zm11.1-3.46a.53.53 0 0 1 .13.38v4.75a.53.53 0 0 1-.13.38.48.48 0 0 1-.36.15.5.5 0 0 1-.4-.19l-3-3.85v3.51a.53.53 0 0 1-.13.38.46.46 0 0 1-.36.15.43.43 0 0 1-.35-.15.53.53 0 0 1-.13-.38v-4.75a.5.5 0 0 1 .14-.38.49.49 0 0 1 .36-.14.44.44 0 0 1 .39.19l2.94 3.83v-3.5a.54.54 0 0 1 .14-.38.47.47 0 0 1 .35-.14.49.49 0 0 1 .41.14zm8.37 5.19a.41.41 0 0 1-.15.32.51.51 0 0 1-.32.17.44.44 0 0 1-.24-.07.42.42 0 0 1-.18-.21l-.48-1.09h-2.88l-.49 1.09a.42.42 0 0 1-.18.21.43.43 0 0 1-.25.07.5.5 0 0 1-.34-.13.41.41 0 0 1-.15-.32.54.54 0 0 1 0-.21l2.23-4.8a.51.51 0 0 1 .22-.24.62.62 0 0 1 .32-.09.59.59 0 0 1 .32.09.53.53 0 0 1 .23.24l2.24 4.8a.54.54 0 0 1 .1.17zm-3.9-1.73h2.14l-1.07-2.4zM57.5 123a.38.38 0 0 1 .11.29V125a1.15 1.15 0 0 1-.09.53.79.79 0 0 1-.4.25 5.92 5.92 0 0 1-.75.18 6 6 0 0 1-.83.06 3.2 3.2 0 0 1-1.53-.35 2.35 2.35 0 0 1-1-1 3.77 3.77 0 0 1 0-3.13 2.39 2.39 0 0 1 1-1 3 3 0 0 1 1.48-.35 2.82 2.82 0 0 1 1.88.61.73.73 0 0 1 .14.18.46.46 0 0 1 0 .21.44.44 0 0 1-.1.3.28.28 0 0 1-.23.12.41.41 0 0 1-.16 0 .56.56 0 0 1-.17-.09 2.55 2.55 0 0 0-.67-.35 2.09 2.09 0 0 0-.69-.1 1.63 1.63 0 0 0-1.33.52 2.31 2.31 0 0 0-.45 1.55c0 1.4.61 2.1 1.84 2.1a4.11 4.11 0 0 0 1.1-.15v-1.43h-.91a.4.4 0 0 1-.3-.1.32.32 0 0 1-.11-.27.34.34 0 0 1 .11-.28.45.45 0 0 1 .3-.1h1.46a.42.42 0 0 1 .3.09zm3.2 2.8a.49.49 0 0 1-.13-.37v-4.72a.48.48 0 0 1 .13-.36.49.49 0 0 1 .37-.13H64a.58.58 0 0 1 .37.11.38.38 0 0 1 .13.3.42.42 0 0 1-.13.31.58.58 0 0 1-.37.11h-2.4v1.57h2.24a.53.53 0 0 1 .36.1.36.36 0 0 1 .13.31.35.35 0 0 1-.13.3.53.53 0 0 1-.36.1h-2.25v1.67H64a.58.58 0 0 1 .37.11.41.41 0 0 1 .13.31.38.38 0 0 1-.13.3.58.58 0 0 1-.37.11h-2.93a.54.54 0 0 1-.37-.13zm11.85-5.48a.54.54 0 0 1 .14.38v4.79a.53.53 0 0 1-.13.36.51.51 0 0 1-.68 0 .52.52 0 0 1-.12-.36v-3.33l-1.37 2.6a.84.84 0 0 1-.21.26.44.44 0 0 1-.27.09.5.5 0 0 1-.27-.08.79.79 0 0 1-.21-.27l-1.38-2.56v3.29a.46.46 0 0 1-.13.35.42.42 0 0 1-.33.14.48.48 0 0 1-.34-.13.52.52 0 0 1-.12-.36v-4.79a.54.54 0 0 1 .14-.38.49.49 0 0 1 .36-.14.55.55 0 0 1 .49.35l1.8 3.42 1.79-3.42a.53.53 0 0 1 .47-.35.51.51 0 0 1 .37.14zm3.29 5.48a.5.5 0 0 1-.14-.37v-4.72a.47.47 0 0 1 .51-.49h2.92a.53.53 0 0 1 .36.11.35.35 0 0 1 .13.3.39.39 0 0 1-.13.31.53.53 0 0 1-.36.11h-2.41v1.57H79a.57.57 0 0 1 .36.1.36.36 0 0 1 .13.31.35.35 0 0 1-.13.3.57.57 0 0 1-.36.1h-2.28v1.67h2.41a.53.53 0 0 1 .36.11.37.37 0 0 1 .13.31.35.35 0 0 1-.13.3.53.53 0 0 1-.36.11h-2.92a.54.54 0 0 1-.37-.13zm11.1-5.48a.58.58 0 0 1 .13.38v4.75a.54.54 0 0 1-.14.38.45.45 0 0 1-.35.15.47.47 0 0 1-.4-.19l-3-3.85v3.51a.53.53 0 0 1-.13.38.43.43 0 0 1-.35.15.46.46 0 0 1-.36-.15.58.58 0 0 1-.13-.38v-4.75a.54.54 0 0 1 .14-.38.49.49 0 0 1 .36-.14.44.44 0 0 1 .39.19l3 3.83v-3.5a.53.53 0 0 1 .13-.38.53.53 0 0 1 .72 0zm4.63 5.51a.5.5 0 0 1-.15-.38v-4.37H90c-.32 0-.48-.14-.48-.43s.16-.43.48-.43h4c.33 0 .49.14.49.43s-.16.43-.49.43h-1.53v4.37a.48.48 0 0 1-.47.55.52.52 0 0 1-.43-.17z" fill="#50605f"/><path d="M19.2 99.1a.83.83 0 0 1-.33.67 1.1 1.1 0 0 1-.72.28 1 1 0 0 1-.52-.16 1 1 0 0 1-.36-.45l-1.39-3.16h-7.7l-1.39 3.16a1 1 0 0 1-.37.45 1.05 1.05 0 0 1-.53.16 1.16 1.16 0 0 1-.75-.28.85.85 0 0 1-.32-.67 1.14 1.14 0 0 1 .1-.42l5.93-13a1.12 1.12 0 0 1 .48-.53 1.31 1.31 0 0 1 1.36 0 1.12 1.12 0 0 1 .48.53l5.92 13a1.19 1.19 0 0 1 .11.42zM9 94.56h6.16L12 87.6zm15.13 5.18a1.06 1.06 0 0 1-.3-.79v-12h-4.21c-.67 0-1-.3-1-.91a.86.86 0 0 1 .26-.67 1.14 1.14 0 0 1 .75-.23h10.6a1.09 1.09 0 0 1 .74.23.83.83 0 0 1 .27.67c0 .61-.34.91-1 .91H26V99a1.1 1.1 0 0 1-.29.79 1.17 1.17 0 0 1-1.59 0zm9.8-.07a1 1 0 0 1-.29-.74V86.11a1.06 1.06 0 0 1 .3-.79 1 1 0 0 1 .78-.31 1 1 0 0 1 1.09 1.1v12h6.39a1.14 1.14 0 0 1 .75.23.88.88 0 0 1 .26.68.86.86 0 0 1-.26.67 1.14 1.14 0 0 1-.75.23h-7.51a1.05 1.05 0 0 1-.76-.25zm24.8-.57a.83.83 0 0 1-.33.67 1.13 1.13 0 0 1-.73.28 1 1 0 0 1-.51-.16 1.1 1.1 0 0 1-.37-.45l-1.39-3.16h-7.69l-1.39 3.16a1 1 0 0 1-.9.61 1.16 1.16 0 0 1-.75-.28.82.82 0 0 1-.32-.67 1.14 1.14 0 0 1 .1-.42l5.93-13a1.1 1.1 0 0 1 .47-.53 1.33 1.33 0 0 1 1.37 0 1.1 1.1 0 0 1 .47.53l5.93 13a1.19 1.19 0 0 1 .11.42zm-10.24-4.54h6.16l-3.09-7zm25.01-9.24a1.14 1.14 0 0 1 .28.79V99a1.1 1.1 0 0 1-.29.79 1 1 0 0 1-.76.31.94.94 0 0 1-.84-.43l-8.24-10.91V99a1.1 1.1 0 0 1-.29.79 1 1 0 0 1-.74.31 1 1 0 0 1-.74-.3 1.12 1.12 0 0 1-.27-.8V86.11a1.06 1.06 0 0 1 .29-.79 1 1 0 0 1 .76-.31 1 1 0 0 1 .84.42l8.24 10.89V86.11a1.13 1.13 0 0 1 .27-.79.94.94 0 0 1 .74-.31 1 1 0 0 1 .75.31zm8.19 14.42a1.06 1.06 0 0 1-.3-.79v-12h-4.21c-.67 0-1-.3-1-.91a.83.83 0 0 1 .26-.67 1.09 1.09 0 0 1 .74-.23h10.6a1.14 1.14 0 0 1 .75.23.86.86 0 0 1 .26.67c0 .61-.34.91-1 .91h-4.2V99a1 1 0 0 1-1.1 1.1 1.1 1.1 0 0 1-.8-.36zm9.81.01a1.09 1.09 0 0 1-.29-.8V86.11a1.1 1.1 0 0 1 .29-.79 1 1 0 0 1 .78-.31 1.07 1.07 0 0 1 .8.3 1.06 1.06 0 0 1 .3.8V99a1.09 1.09 0 0 1-.29.8 1.2 1.2 0 0 1-1.59 0zm7.81-.08A6.11 6.11 0 0 1 97 98.45a1.07 1.07 0 0 1-.4-.86 1 1 0 0 1 .21-.65.64.64 0 0 1 .51-.26A1.41 1.41 0 0 1 98 97a7 7 0 0 0 4.27 1.39 4.53 4.53 0 0 0 2.59-.63 2.07 2.07 0 0 0 .9-1.81 1.48 1.48 0 0 0-.84-1.38 10.94 10.94 0 0 0-2.69-.89 16 16 0 0 1-2.9-.86 4.34 4.34 0 0 1-1.78-1.31 3.36 3.36 0 0 1-.55-2.17 3.87 3.87 0 0 1 .7-2.28 4.67 4.67 0 0 1 2-1.55 7.08 7.08 0 0 1 2.8-.51 8.66 8.66 0 0 1 2.75.42 5.79 5.79 0 0 1 2.15 1.24 1.1 1.1 0 0 1 .42.86 1 1 0 0 1-.22.63.64.64 0 0 1-.52.28 1.33 1.33 0 0 1-.69-.28 7.66 7.66 0 0 0-1.82-1.15 5.7 5.7 0 0 0-2-.32 4.2 4.2 0 0 0-2.52.66 2.13 2.13 0 0 0-.91 1.84 1.7 1.7 0 0 0 .8 1.52 8.47 8.47 0 0 0 2.57.94 21.26 21.26 0 0 1 3 .87 4.56 4.56 0 0 1 1.83 1.24 3 3 0 0 1 .69 2 3.74 3.74 0 0 1-.71 2.24 4.49 4.49 0 0 1-2 1.51 7.4 7.4 0 0 1-2.93.54 10.49 10.49 0 0 1-3.08-.37z" fill="#2f3837"/><path d="M57.72 68.89c21.69 0 34.77 5.78 40 8.19a.9.9 0 0 0 1.18-1.25L58.5.48a.91.91 0 0 0-1.59 0L15 76.68a.91.91 0 0 0 1.18 1.26 95.83 95.83 0 0 1 41.54-9.05z" fill="url(#A)"/></svg>