<svg xmlns="http://www.w3.org/2000/svg" width="341" height="217" xmlns:v="https://vecta.io/nano"><path d="M.002 211.169v4.042h37.307l2.341-12.483-4.327-1.773-5.107 8.157-14.895 1.064v-42.767l6.1-.639v-5.319H.215v5.318l5.106.64v42.56zm61.139-35.6c-2.929.029-5.844.398-8.688 1.1a17.39 17.39 0 0 0-7.057 3.085l1.844 4.4c1.625-.865 3.353-1.52 5.142-1.95 1.771-.471 3.594-.721 5.426-.745q4.184 0 6.206 1.844 2.022 1.844 2.021 6.526v1.7a39.45 39.45 0 0 0-10.533 1.418c-3.162.803-6.083 2.361-8.511 4.54a10.19 10.19 0 0 0-3.369 7.8c-.073 3.006 1.233 5.879 3.546 7.8a13.75 13.75 0 0 0 9.291 3.049q6.809 0 10.639-4.184.213 4.255 5.39 4.255a20.04 20.04 0 0 0 4.256-.5 11.36 11.36 0 0 0 3.617-1.348v-3.121h-4.467l.071-22.2q0-7.235-3.83-10.355-3.83-3.12-10.994-3.114h0zm4.894 20.569l-.071 12.2c-.722.698-1.596 1.22-2.553 1.524a9.41 9.41 0 0 1-3.05.532q-6.739 0-6.738-6.525c-.071-2.538 1.421-4.861 3.759-5.851a19.1 19.1 0 0 1 8.653-1.88h0zm21.42-30v47.231q1.347 1.065 5.993 1.951a48.99 48.99 0 0 0 9.185.886 19.81 19.81 0 0 0 10.639-2.943c3.147-1.94 5.709-4.697 7.412-7.979a23.18 23.18 0 0 0 2.66-10.994q0-9.219-4.4-14.079a15.02 15.02 0 0 0-11.7-4.858c-3.581-.051-7.077 1.097-9.93 3.262v-19.146l-1.773-.567-13.192 1.418v4.114zm9.859 42.7v-25.969c1.771-1.222 3.877-1.866 6.029-1.844a8.5 8.5 0 0 1 5.107 1.7 11.34 11.34 0 0 1 3.688 4.858 18.78 18.78 0 0 1 1.348 7.412q0 7.52-2.66 12.093-2.66 4.573-7.128 4.575c-1.408.038-2.809-.216-4.114-.745a4.06 4.06 0 0 1-2.27-2.092h0zm51.848-33.548c-3.555.035-7.049.936-10.178 2.624a18.02 18.02 0 0 0-7.093 7.057c-1.792 3.318-2.685 7.047-2.589 10.816q0 9.15 4.859 14.718 4.859 5.568 14.15 5.568a19.34 19.34 0 0 0 10-2.589 18.37 18.37 0 0 0 6.951-7.377 23.08 23.08 0 0 0 2.554-11.029q.069-9.219-4.752-14.54-4.821-5.321-13.9-5.248h0zm-.5 4.61q4.468 0 6.6 4.362c1.549 3.564 2.276 7.43 2.127 11.313q0 7.518-1.915 11.667a6.82 6.82 0 0 1-6.738 4.149q-4.326 0-6.6-4.965a27.91 27.91 0 0 1-2.27-11.7q0-7.023 2.022-10.923a7.03 7.03 0 0 1 6.773-3.9h0zm26.669 24.47v8.653a23.24 23.24 0 0 0 6.1 2.234c2.278.534 4.61.807 6.95.816q7.377 0 12.164-3.086a10.28 10.28 0 0 0 4.788-9.256c.051-1.806-.444-3.585-1.419-5.106a11.78 11.78 0 0 0-3.652-3.511 59.77 59.77 0 0 0-5.852-3.086q-3.761-1.843-5.5-2.8c-1.105-.596-2.1-1.375-2.943-2.305-.785-.848-1.217-1.965-1.206-3.121-.073-1.327.577-2.589 1.7-3.3 1.352-.79 2.904-1.172 4.469-1.1a6.52 6.52 0 0 1 5.319 2.7l1.773 3.972h4.682v-8.583a24.96 24.96 0 0 0-5.568-1.56 33.33 33.33 0 0 0-6.7-.567 21.66 21.66 0 0 0-7.27 1.241 13.99 13.99 0 0 0-5.78 3.723c-1.508 1.64-2.322 3.801-2.27 6.029a10.07 10.07 0 0 0 3.014 7.412c2.504 2.338 5.397 4.222 8.547 5.568l1.844.851a34.5 34.5 0 0 1 5.568 3.05 4.03 4.03 0 0 1 1.809 3.191c.085 1.52-.593 2.983-1.809 3.9a9.88 9.88 0 0 1-8.83.568 18.16 18.16 0 0 1-3.476-2.553l-1.915-3.972h-4.539zm49.365-37.166h-4.752c-.828 2.849-1.945 5.606-3.334 8.228a4.89 4.89 0 0 1-2.092 1.915 25.23 25.23 0 0 1-4.362 1.276v3.334h5.178v22.7q0 5.958 2.127 8.689 2.127 2.731 6.951 2.731c2.379-.023 4.743-.382 7.022-1.064 2.041-.48 3.923-1.482 5.461-2.908l-1.56-3.618c-.908.446-1.875.757-2.873.922-1.129.258-2.282.401-3.44.426a3.05 3.05 0 0 1-2.766-1.312 8.65 8.65 0 0 1-1.064-3.937q-.213-2.622-.212-8.014v-14.623h11.206v-5.462h-11.49v-9.291zm26.952-10.71a7.2 7.2 0 0 0-4.894 1.951c-1.403 1.163-2.21 2.894-2.2 4.716-.044 1.555.606 3.05 1.774 4.078 1.138 1.049 2.636 1.622 4.184 1.6 1.833.022 3.606-.649 4.965-1.879a6.1 6.1 0 0 0 2.128-4.788 5.64 5.64 0 0 0-1.525-4.114 5.93 5.93 0 0 0-4.433-1.56h0zm2.766 19.008l-11.986 3.689v2.837l4.539 3.972v24.319l-5.249.922v3.972h20.214v-3.972l-5.248-.851v-34.044zm32.768-.141a22.1 22.1 0 0 0-10.71 2.73c-3.138 1.743-5.719 4.337-7.447 7.483-1.847 3.416-2.775 7.253-2.695 11.136-.021 3.478.73 6.918 2.2 10.071a15.83 15.83 0 0 0 6.206 6.845c2.941 1.689 6.291 2.536 9.681 2.447a31.15 31.15 0 0 0 8.582-1.135 15.6 15.6 0 0 0 6.313-3.263l-1.561-3.83a13.83 13.83 0 0 1-4.255 1.525 25.59 25.59 0 0 1-5.462.6c-2.118.018-4.189-.627-5.922-1.844-1.883-1.367-3.345-3.235-4.22-5.391a21.03 21.03 0 0 1-1.56-8.511q0-6.312 2.553-10.107c1.458-2.396 4.076-3.84 6.88-3.795.882.004 1.761.099 2.624.284.822.156 1.598.496 2.27.993l2.34 5.461h5.036v-9.929c-1.448-.704-3.008-1.148-4.61-1.312a42.72 42.72 0 0 0-6.242-.461h0zm34.471.212a37.84 37.84 0 0 0-8.689 1.1 17.39 17.39 0 0 0-7.057 3.085l1.844 4.4a21.8 21.8 0 0 1 5.142-1.95 22.26 22.26 0 0 1 5.426-.745q4.185 0 6.206 1.844 2.021 1.844 2.022 6.526v1.7c-3.559-.005-7.102.472-10.533 1.418-3.162.803-6.083 2.361-8.511 4.54a10.19 10.19 0 0 0-3.369 7.8c-.074 3.006 1.233 5.879 3.546 7.8a13.75 13.75 0 0 0 9.292 3.049q6.809 0 10.639-4.184.212 4.255 5.39 4.255c1.432-.014 2.859-.182 4.256-.5 1.274-.24 2.497-.696 3.617-1.348v-3.121h-4.469l.071-22.2q0-7.235-3.83-10.355-3.83-3.12-10.991-3.118h0zm4.894 20.569l-.071 12.2c-.722.698-1.597 1.22-2.554 1.524a9.41 9.41 0 0 1-3.049.532q-6.739 0-6.739-6.525c-.071-2.538 1.422-4.861 3.76-5.851a19.1 19.1 0 0 1 8.653-1.88h0z" fill="#fff"/><path d="M176.007 56.569c-10.715.152-19.292 8.934-19.191 19.649s8.842 19.334 19.557 19.285 19.376-8.749 19.378-19.465c-.036-5.2-2.137-10.173-5.84-13.824s-8.704-5.682-13.904-5.645zm15.1-29.185V7.262h4.066a3.66 3.66 0 0 0 3.684-3.633 3.66 3.66 0 0 0-3.689-3.634H156.85a3.66 3.66 0 0 0-3.685 3.633 3.66 3.66 0 0 0 3.685 3.633h2.4v20.708a52.19 52.19 0 0 0-10.93 5.188 10.42 10.42 0 0 1 2.605 6.846 10.74 10.74 0 0 1-17.879 7.877 50.11 50.11 0 0 0-8.635 28.159c0 28.1 23.1 50.875 51.6 50.875s51.6-22.777 51.6-50.875c-.103-22.496-14.938-42.265-36.509-48.651zm-15.093 78.33c-16.335-.231-29.412-13.62-29.259-29.956s13.481-29.477 29.817-29.4 29.54 13.341 29.541 29.678c-.055 7.929-3.259 15.51-8.904 21.077s-13.272 8.662-21.201 8.606zm-43.72-67.124a6.45 6.45 0 0 0 10.978 4.682 6.45 6.45 0 0 0-4.529-11.042 6.4 6.4 0 0 0-6.449 6.36zm-5.013-7.773c.041-2.908-1.679-5.552-4.354-6.693s-5.774-.553-7.844 1.488-2.703 5.132-1.6 7.823 3.723 4.448 6.631 4.448c1.887.014 3.703-.723 5.047-2.048s2.107-3.13 2.12-5.018zm10.033-9.892c3.112-.043 5.603-2.593 5.575-5.705s-2.566-5.616-5.678-5.602-5.628 2.539-5.629 5.651a5.69 5.69 0 0 0 5.729 5.656z" fill="#df3940"/></svg>