<svg xmlns="http://www.w3.org/2000/svg" width="640" height="146.667" viewBox="0 0 480 110" preserveAspectRatio="xMidYMid meet" xmlns:v="https://vecta.io/nano"><path d="M148.7 29.4c-.3.7-1.8 1.7-3.4 2-2.9.8-8.8 4.8-11.1 7.6-.7.8-2.2 3.3-3.4 5.5-3 5.6-3 17.3-.1 23 7.9 15 27.7 19.1 42.3 8.8 2.2-1.6 4-3.3 4-4 0-.6-1.4-2.3-3.1-3.7l-3.1-2.7-3.3 2.5c-4.8 3.7-11.6 5.2-16.8 3.6-15.4-4.5-17.2-24.2-3-31.1 5.7-2.7 12.9-2.1 18.4 1.6 2.1 1.4 4.5 2.5 5.2 2.5 1.6 0 5.7-4.1 5.7-5.8 0-1.4-7.9-6.9-11.3-7.7-1.4-.4-3.1-1.3-3.8-2.1-1.6-1.9-12.5-1.9-13.2 0zM7.2 55.7l.3 24.8 3.5.3c5.8.4 6.3-.5 6.1-10.7-.2-9-.2-9.1 2.4-10.1 1.5-.6 3.8-1 5.3-1 3.7 0 8.8-3.3 11.3-7.2 2.5-4 2.1-10.7-.8-14.7-3.5-4.7-7.8-6.1-18.6-6.1H7l.2 24.7zM26 41.8c3.2 2.6 2.1 6.6-2.1 8.1-4.6 1.6-6.9 0-6.9-4.8 0-2.1.3-4.1.7-4.4 1.3-1.3 6.1-.7 8.3 1.1zm21.7-10.2c-.4.4-.7 11.4-.7 24.5 0 20.7.2 23.8 1.6 24.3.9.3 5.5.6 10.4.6 9.7 0 12-1.1 12-5.5 0-3-2.9-4.7-6.8-3.9-1.6.3-3.9.1-5.1-.5-2-1.1-2.1-2-2.3-20.4l-.3-19.2-4-.3c-2.3-.2-4.4 0-4.8.4zm46.7.1c-1.3.9-4.6 8.7-11.9 27.8l-6 15.2c-1.9 4.4-1 6.3 3 6.3 3.4 0 5.4-1.7 7.6-6.5l1.4-3 10.3-.3 10.3-.3 1.9 4.5c2.1 4.7 3.4 5.6 8.1 5.6 4.1 0 4.4-1.7 1.4-7.8-1.4-2.8-2.5-5.5-2.5-5.9 0-.5-6.1-16.2-10.6-27.3-3.3-8-3.8-8.5-7.9-8.8-2.2-.1-4.5.1-5.1.5zm8.1 21.7c1.3 3.3 2.2 6.3 1.9 6.8-.3.4-3 .8-6 .8-4.5 0-5.4-.3-5.4-1.8 0-1 .4-2.2.8-2.8.5-.5 1.4-2.8 2.1-5.2 1.6-5.8 3.6-5.2 6.6 2.2zm84-21.2c-.3.8-.4 11.9-.3 24.8l.3 23.5 11.5.3c15.3.4 16 .2 16-4.7 0-4.7-.8-5.1-10.6-5.1-4.1 0-7.4-.3-7.5-.8-.5-3.8-.4-9.5.3-10.5.5-.8 3.1-1.1 8-.9 4 .1 7.9-.2 8.6-.6.8-.6 1.2-2.4 1-4.8l-.3-3.9-8.4-.5c-9.5-.6-11.4-1.9-9.3-6.4 1-2.4 1.6-2.5 9.4-2.8l8.3-.3v-4-4l-13.3-.3c-10.1-.2-13.4 0-13.7 1zm37 0c-.3.7-.4 11.9-.3 24.8l.3 23.5 3.6.3c2.1.2 4-.2 4.7-1.1.6-.7 1.3-5.6 1.4-10.8l.3-9.4 6.8-.3c9.5-.4 10 .1 9.5 11-.3 9.7.2 10.8 5.3 10.8 4.8 0 5-1.1 4.7-26.1l-.3-23.4-3.8-.3c-5.8-.5-6.5.7-5.9 9 .4 6.1.2 7.3-1.3 8.5-2 1.4-12.2 1.8-14.2.5-.7-.5-1.3-4-1.5-9.2l-.3-8.5-4.3-.3c-2.8-.2-4.4.1-4.7 1zm61-.3c-6.6 2.1-13.5 8.4-16.1 14.7-1.6 3.9-1.8 12.4-.4 17.6 1.1 3.8 9.3 13.8 11.4 13.8 1.5 0 6.6-5.2 6.6-6.8 0-.6-1.1-1.9-2.4-2.8-6.4-4.2-8.5-14.2-4.3-20.5 6.5-9.8 20.4-9 26.4 1.6 4.3 7.7 2.4 12.2-10.6 24.9-5 4.9-9.1 9.4-9.1 10 .1 1.4 4.6 6.6 5.8 6.6 1.5 0 21.6-20.8 23.4-24.3 2.3-4.3 2.4-16.6.2-21.2-2.2-4.7-8-10.4-12.8-12.6-4.1-1.9-13.9-2.4-18.1-1zm40.9.4c-.2.7-.3 11.8-.2 24.7l.3 23.5 10.4.3c11 .3 13.1-.4 13.1-4.2 0-3.9-1.6-5-7.4-5.1-3 0-5.8-.4-6.2-.7-.3-.4-.6-8.9-.5-18.8.2-12.7-.1-18.6-1-19.6-1.4-1.7-7.8-1.9-8.5-.1zm31.4-.7c-.5.4-.8 11.2-.8 23.9 0 19.7.2 23.5 1.5 24.5 1.2 1 4.3 1.1 12.7.6 13.9-.8 17.8-2.6 22.6-10.6 2.9-4.9 3.2-6.2 3.2-13.1 0-11.5-4-19.2-12.5-23.7-3.2-1.7-25.3-3.1-26.7-1.6zm20.5 9.8c5.5 2.3 9.7 8.9 9.7 15.2 0 4.2-3.7 11.2-6.9 12.8-3 1.6-12.5 2.6-13.6 1.4-.9-.8-.9-28.4 0-29.7.9-1.5 7-1.4 10.8.3zm29.2-9.4c-.4.6-.7 11.5-.7 24.2 0 18.1.3 23.3 1.4 23.9.7.5 6.6.9 13.1.9 11.6 0 11.8 0 12.9-2.5.8-1.9.8-3.1 0-5-1-2.2-1.7-2.4-9.4-2.7l-8.3-.3-.3-4.6c-.4-6.6 1.1-7.8 9.1-7.2 7 .6 9.7-.8 9.7-5 0-4-1.3-4.6-9.4-4.9-8.7-.3-10.4-1.5-9.2-6.1.6-2.7.8-2.7 9.1-2.7s8.5 0 9.1-2.7c1.3-5.1-.1-5.8-13.9-6.1-8.1-.2-12.8.1-13.2.8zm37.7.2c-.9.9-1.2 7.6-1.2 23.9 0 25 .1 25.3 6.2 24.7l3.3-.3.3-9.3c.3-10.5 1.7-12 4.8-5 1 2.4 3.3 6.7 5.1 9.5 3.2 5.1 3.4 5.3 7.8 5.3 5 0 7-2.1 4.2-4.3-1.6-1.3-9.7-15.3-9.7-16.8 0-.6 1.8-2.7 4-4.8 3.8-3.6 4-4.1 4-9.8 0-7-2.2-10.6-7.6-12.9-4.2-1.8-19.5-1.9-21.2-.2zm17.6 9.4c3.6 2.5 2.6 6.6-1.8 8-4.9 1.6-7 .3-7-4.5 0-2.1.3-4.1.7-4.4 1.2-1.3 5.8-.7 8.1.9zm-174.7 11c-1.2 1.5-2.1 3.2-2.1 3.9 0 1.6 5.7 6.5 7.4 6.5 2.5 0 6.6-4.1 6.6-6.6 0-6-8.1-8.6-11.9-3.8z"/></svg>